<svg xmlns="http://www.w3.org/2000/svg" width="1024" height="1024" viewBox="0 0 1024 1024">
  <defs>
    <linearGradient id="bg" x1="0" y1="0" x2="1" y2="1">
      <stop offset="0" stop-color="#9580FF"/>
      <stop offset="1" stop-color="#3B2E7A"/>
    </linearGradient>
    <radialGradient id="subject" cx="0.38" cy="0.34" r="0.75">
      <stop offset="0" stop-color="#FFD3C7"/>
      <stop offset="0.35" stop-color="#FF9580"/>
      <stop offset="1" stop-color="#D9604F"/>
    </radialGradient>
  </defs>
  <!-- 底：漸層圓角方塊（與 ai-music-cut 同家族） -->
  <rect x="64" y="64" width="896" height="896" rx="200" fill="url(#bg)"/>
  <!-- 膠卷框 + 齒孔 + 畫面 -->
  <rect x="152" y="216" width="720" height="592" rx="46" fill="#22212C"/>
  <rect x="200.0" y="258" width="44" height="38" rx="9" fill="rgba(248,248,242,0.82)"/>
  <rect x="282.9" y="258" width="44" height="38" rx="9" fill="rgba(248,248,242,0.82)"/>
  <rect x="365.7" y="258" width="44" height="38" rx="9" fill="rgba(248,248,242,0.82)"/>
  <rect x="448.6" y="258" width="44" height="38" rx="9" fill="rgba(248,248,242,0.82)"/>
  <rect x="531.4" y="258" width="44" height="38" rx="9" fill="rgba(248,248,242,0.82)"/>
  <rect x="614.3" y="258" width="44" height="38" rx="9" fill="rgba(248,248,242,0.82)"/>
  <rect x="697.1" y="258" width="44" height="38" rx="9" fill="rgba(248,248,242,0.82)"/>
  <rect x="780.0" y="258" width="44" height="38" rx="9" fill="rgba(248,248,242,0.82)"/>
  <rect x="200.0" y="734" width="44" height="38" rx="9" fill="rgba(248,248,242,0.82)"/>
  <rect x="282.9" y="734" width="44" height="38" rx="9" fill="rgba(248,248,242,0.82)"/>
  <rect x="365.7" y="734" width="44" height="38" rx="9" fill="rgba(248,248,242,0.82)"/>
  <rect x="448.6" y="734" width="44" height="38" rx="9" fill="rgba(248,248,242,0.82)"/>
  <rect x="531.4" y="734" width="44" height="38" rx="9" fill="rgba(248,248,242,0.82)"/>
  <rect x="614.3" y="734" width="44" height="38" rx="9" fill="rgba(248,248,242,0.82)"/>
  <rect x="697.1" y="734" width="44" height="38" rx="9" fill="rgba(248,248,242,0.82)"/>
  <rect x="780.0" y="734" width="44" height="38" rx="9" fill="rgba(248,248,242,0.82)"/>
  <rect x="192" y="316" width="640" height="392" rx="18" fill="#2F303B"/>
  <!-- 被追蹤的物件：軌跡、主體、遮罩虛線、追蹤框四角、AI 星芒 -->
  <g>
    <circle cx="258" cy="664" r="13" fill="#80FFEA" opacity="0.32"/>
    <circle cx="306" cy="630" r="17" fill="#80FFEA" opacity="0.5"/>
    <circle cx="356" cy="598" r="21" fill="#80FFEA" opacity="0.7"/>
    <circle cx="566" cy="506" r="104" fill="url(#subject)"/>
    <circle cx="566" cy="506" r="128" fill="none" stroke="#80FFEA" stroke-width="7" stroke-dasharray="22 16" stroke-linecap="round" opacity="0.9"/>
    <path d="M472 350 L410 350 L410 412" fill="none" stroke="#80FFEA" stroke-width="18" stroke-linecap="round" stroke-linejoin="round"/>
    <path d="M660 350 L722 350 L722 412" fill="none" stroke="#80FFEA" stroke-width="18" stroke-linecap="round" stroke-linejoin="round"/>
    <path d="M660 662 L722 662 L722 600" fill="none" stroke="#80FFEA" stroke-width="18" stroke-linecap="round" stroke-linejoin="round"/>
    <path d="M472 662 L410 662 L410 600" fill="none" stroke="#80FFEA" stroke-width="18" stroke-linecap="round" stroke-linejoin="round"/>
    <path d="M730 288 Q736.3 335.7 784 342 Q736.3 348.3 730 396 Q723.7 348.3 676 342 Q723.7 335.7 730 288 Z" fill="#FFFF80"/>
  </g>
</svg>
